<?xml version="1.0" standalone="no"?>
<!DOCTYPE svg PUBLIC "-//W3C//DTD SVG 20010904//EN"
 "http://www.w3.org/TR/2001/REC-SVG-20010904/DTD/svg10.dtd">
<svg version="1.0" xmlns="http://www.w3.org/2000/svg"
 width="307.000000pt" height="164.000000pt" viewBox="0 0 307.000000 164.000000"
 preserveAspectRatio="xMidYMid meet">

<g transform="translate(0.000000,164.000000) scale(0.100000,-0.100000)"
fill="#000000" stroke="none">
<path d="M968 1533 c6 -2 18 -2 25 0 6 3 1 5 -13 5 -14 0 -19 -2 -12 -5z"/>
<path d="M835 1520 l-40 -7 43 -2 c23 0 42 4 42 9 0 6 -1 9 -2 9 -2 -1 -21 -5
-43 -9z"/>
<path d="M908 1523 c7 -3 16 -2 19 1 4 3 -2 6 -13 5 -11 0 -14 -3 -6 -6z"/>
<path d="M1580 1469 c-142 -8 -448 -43 -457 -52 -2 -3 24 -39 59 -81 36 -41
102 -130 148 -198 46 -68 84 -124 86 -126 2 -3 365 -29 469 -34 49 -2 278 27
360 46 148 34 162 39 184 72 29 42 16 75 -28 69 -21 -2 -42 7 -80 36 -28 21
-51 37 -51 34 0 -2 14 -20 30 -39 l31 -34 -23 -16 c-25 -18 -48 -21 -48 -7 0
5 -20 17 -45 28 -25 10 -45 24 -45 31 0 6 -3 11 -7 10 -5 -2 -25 8 -46 21 -21
12 -44 20 -53 17 -8 -3 -27 0 -42 7 -15 8 -65 22 -112 32 -47 10 -119 28 -160
41 -41 13 -84 24 -95 25 -13 0 -9 4 13 10 25 7 32 15 32 34 0 26 -12 32 -85
38 -22 2 -7 4 33 5 40 1 72 6 72 12 0 6 17 10 38 11 33 1 34 2 12 9 -14 4 -32
8 -40 7 -8 0 -76 -4 -150 -8z"/>
<path d="M645 1459 c-70 -9 -125 -26 -125 -38 0 -24 269 -221 302 -221 7 0
-20 19 -59 42 -40 23 -73 47 -73 54 0 6 21 40 46 74 28 38 42 66 36 72 -10 10
-48 -36 -86 -101 l-21 -39 -62 52 c-34 28 -62 54 -62 59 -2 15 46 27 137 35
51 4 96 4 99 -1 2 -4 11 -3 18 3 9 7 31 8 72 1 123 -19 142 -29 210 -99 39
-41 62 -72 59 -82 -3 -8 -15 -53 -27 -100 -13 -47 -24 -87 -26 -89 -2 -2 -15
1 -29 8 -15 6 -29 9 -32 6 -18 -18 237 -84 283 -73 18 4 -138 247 -209 325
-82 90 -135 113 -272 118 -60 2 -140 0 -179 -6z m565 -281 c25 -39 55 -88 68
-109 l23 -38 -38 5 c-94 13 -145 27 -150 40 -6 16 36 174 46 174 3 -1 26 -33
51 -72z"/>
<path d="M455 1393 c-22 -7 -44 -18 -48 -22 -15 -15 44 -39 75 -31 15 5 30 5
35 1 4 -3 1 2 -6 11 -7 9 -10 21 -8 26 14 21 -9 29 -48 15z"/>
<path d="M2206 1307 c3 -10 9 -15 12 -12 3 3 0 11 -7 18 -10 9 -11 8 -5 -6z"/>
<path d="M123 1283 c-7 -2 -9 -11 -6 -20 4 -10 2 -14 -4 -10 -6 4 -13 -3 -16
-14 -7 -25 2 -228 10 -249 3 -8 5 -24 5 -35 -2 -16 0 -16 8 4 7 17 7 28 0 35
-22 22 -4 140 26 171 9 8 24 15 34 15 24 0 62 -40 55 -58 -2 -7 -1 -11 4 -8
11 7 35 -77 28 -96 -3 -7 -6 1 -7 17 -1 17 -4 24 -7 18 -2 -7 -9 -13 -14 -13
-6 0 -5 8 1 20 7 14 7 20 0 20 -5 0 -11 -7 -11 -15 -3 -35 -6 -40 -19 -36 -8
2 -22 4 -30 5 -8 2 -19 17 -24 34 -9 33 -20 40 -31 21 -9 -13 14 -99 26 -99 5
0 9 6 9 13 0 8 4 7 10 -3 15 -23 12 -38 -10 -45 -24 -8 -27 -40 -5 -49 9 -3
15 -12 13 -19 -2 -7 2 -13 7 -14 6 -2 9 17 7 43 -2 31 0 44 7 39 12 -7 32 34
24 48 -8 14 15 7 27 -8 11 -13 15 -13 21 -3 6 9 9 6 9 -9 0 -12 -4 -25 -10
-28 -6 -3 -10 -14 -10 -23 0 -15 2 -15 11 -2 8 11 9 4 6 -28 -12 -101 -93
-109 -130 -12 -5 13 -6 13 -6 0 -2 -29 52 -98 88 -114 24 -11 75 -17 151 -20
96 -3 124 -8 170 -28 114 -51 373 -183 550 -280 57 -32 69 -44 100 -101 42
-78 62 -101 115 -135 36 -23 53 -26 180 -32 77 -3 149 -11 160 -17 21 -11 173
-49 315 -79 120 -26 232 -22 360 10 124 32 268 79 322 107 21 11 43 17 47 14
5 -3 11 -2 13 3 1 4 26 19 53 33 28 15 49 31 47 38 -1 6 3 11 9 11 5 0 8 4 5
8 -3 5 29 39 71 77 l75 68 -5 45 c-3 32 2 66 20 119 21 63 23 78 13 103 -16
40 -34 43 -47 9 -8 -21 -8 -27 0 -22 6 4 8 0 4 -10 -3 -9 -1 -19 5 -23 7 -5 8
-2 3 6 -5 9 -4 11 4 6 16 -10 3 -29 -56 -75 -65 -53 -140 -86 -262 -116 -182
-45 -470 -92 -498 -81 -9 4 -22 1 -29 -5 -10 -8 -20 -5 -40 15 -15 13 -39 27
-53 31 -66 15 -137 39 -152 52 -8 7 -22 13 -30 13 -8 0 -25 9 -39 20 -14 11
-31 20 -38 20 -8 0 -26 8 -40 19 -15 10 -38 22 -52 26 -24 8 -24 8 -5 16 13 5
15 8 5 8 -8 1 -37 12 -65 26 -27 14 -60 26 -72 27 -12 1 -27 13 -33 28 -13 28
-18 33 -90 108 -47 48 -64 57 -99 53 -8 -2 -10 2 -6 10 5 7 3 10 -6 7 -8 -3
-13 -10 -12 -16 1 -6 -6 -6 -22 1 -13 7 -21 16 -18 21 4 5 -1 6 -11 3 -10 -4
-22 -7 -27 -7 -6 0 -7 -4 -4 -10 3 -5 0 -7 -8 -5 -19 8 -69 -34 -63 -52 3 -8
1 -11 -4 -8 -6 3 -10 15 -10 25 0 24 -20 36 -31 19 -6 -9 -9 0 -9 29 0 26 -5
42 -12 42 -9 0 -9 3 -1 11 8 8 -11 22 -66 51 -42 22 -84 41 -94 41 -10 1 -21
7 -25 12 -11 17 -72 57 -72 48 0 -4 -4 -3 -8 3 -12 17 -112 65 -112 54 0 -6
12 -15 26 -20 27 -11 30 -48 3 -42 -12 3 -12 1 -1 -10 11 -11 17 -9 31 9 10
12 21 19 24 16 12 -11 -43 -44 -63 -38 -20 6 -28 35 -10 35 15 0 12 17 -4 23
-10 4 -13 1 -9 -9 7 -18 -6 -18 -31 1 -20 15 -41 11 -31 -6 4 -5 -5 -4 -19 3
-14 6 -26 18 -26 27 0 13 -2 13 -9 3 -7 -11 -16 -10 -50 7 -37 19 -40 24 -30
42 6 11 8 23 6 26 -3 2 -8 -5 -12 -16 -8 -27 -20 -26 -77 4 -26 14 -49 25 -52
25 -7 0 63 -219 91 -286 25 -57 28 -61 47 -50 12 6 23 12 25 13 6 3 -33 108
-42 111 -4 2 -5 7 -2 12 3 4 -2 24 -10 44 -16 37 -20 96 -7 96 13 -1 42 -27
42 -38 0 -6 4 -14 10 -17 6 -3 7 1 4 10 -6 14 -3 14 20 4 14 -7 26 -17 26 -22
0 -6 3 -8 6 -4 7 7 86 -31 119 -57 23 -18 17 -20 -18 -7 -20 8 -24 7 -23 -7 0
-9 -5 -16 -11 -14 -7 1 -13 -5 -13 -14 0 -11 -6 -14 -20 -9 -29 9 -49 -6 -39
-30 6 -17 8 -17 8 -2 1 9 5 17 10 17 6 0 7 -15 4 -34 -11 -66 9 -95 118 -171
146 -102 164 -115 155 -115 -9 0 -269 133 -276 141 -6 8 -62 36 -95 49 -16 6
-26 6 -31 -2 -4 -7 -3 -8 4 -4 7 4 12 2 12 -4 0 -7 7 -9 16 -6 8 3 13 2 10 -3
-8 -12 22 -23 37 -14 7 3 9 2 4 -2 -8 -10 20 -26 252 -147 282 -146 330 -172
326 -176 -3 -3 -89 40 -512 259 -83 44 -161 79 -173 79 -13 0 -19 4 -14 12 4
7 3 8 -4 4 -7 -4 -12 -3 -12 2 0 6 -7 13 -16 16 -14 5 -15 4 -4 -9 10 -12 10
-15 0 -15 -18 0 -6 -11 16 -14 10 -2 20 -8 22 -14 2 -7 -12 -5 -37 5 -22 9
-38 19 -36 24 3 4 1 10 -5 14 -5 3 -10 21 -10 39 0 19 -12 78 -26 132 -15 55
-27 107 -27 116 -1 9 -5 14 -10 11 -5 -3 -8 0 -5 8 2 7 -3 20 -12 29 -9 8 -10
11 -1 5 12 -9 12 -7 1 15 -22 42 -42 60 -70 60 -14 0 -30 4 -35 9 -6 5 -15 7
-22 4z m552 -193 c10 -16 -12 -12 -29 6 -9 8 -16 18 -16 20 0 7 38 -15 45 -26z
m185 -70 c8 -5 11 -10 5 -10 -5 0 -17 5 -25 10 -8 5 -10 10 -5 10 6 0 17 -5
25 -10z m-230 -55 c0 -8 -2 -15 -4 -15 -2 0 -6 7 -10 15 -3 8 -1 15 4 15 6 0
10 -7 10 -15z m-20 -45 c0 -5 -5 -10 -11 -10 -5 0 -7 5 -4 10 3 6 8 10 11 10
2 0 4 -4 4 -10z m811 -137 c13 -16 12 -17 -3 -4 -17 13 -22 21 -14 21 2 0 10
-8 17 -17z m-62 -46 c75 -45 137 -198 129 -316 -6 -81 -31 -137 -72 -162 -60
-36 -119 -19 -180 52 -116 136 -111 394 8 444 36 16 67 11 115 -18z m166 -97
c3 -5 1 -10 -4 -10 -6 0 -11 5 -11 10 0 6 2 10 4 10 3 0 8 -4 11 -10z m94 -4
l24 -13 -26 -5 c-16 -3 -24 -1 -20 5 4 6 -4 7 -21 3 -24 -6 -26 -5 -14 8 16
19 26 19 57 2z m18 -32 c-3 -3 -12 -4 -19 -1 -8 3 -5 6 6 6 11 1 17 -2 13 -5z
m1313 -110 c0 -14 -4 -23 -9 -20 -5 3 -7 15 -4 26 7 28 13 25 13 -6z m-127
-61 l-5 -41 -126 -54 c-70 -29 -130 -55 -135 -57 -11 -4 0 65 14 91 5 10 15
18 22 18 7 0 62 20 122 44 61 24 111 43 112 42 1 -1 -1 -20 -4 -43z m93 11
c-9 -8 -13 -20 -10 -26 4 -7 2 -8 -4 -4 -14 8 2 46 19 46 6 0 3 -7 -5 -16z
m-48 -47 c9 -10 0 -20 -36 -44 -99 -64 -282 -144 -282 -122 0 5 4 9 10 9 16 0
250 117 270 135 11 10 17 22 14 26 -8 14 12 10 24 -4z m-415 -159 c10 2 17 -3
17 -12 0 -10 6 -13 18 -10 14 5 14 4 2 -4 -24 -16 -94 -27 -86 -13 4 6 2 11
-3 11 -6 0 -11 5 -11 11 0 5 5 7 10 4 6 -3 10 1 10 10 0 10 4 13 13 8 6 -4 20
-6 30 -5z m-106 -64 c-3 -3 -12 -4 -19 -1 -8 3 -5 6 6 6 11 1 17 -2 13 -5z
m-60 -10 c-3 -3 -12 -4 -19 -1 -8 3 -5 6 6 6 11 1 17 -2 13 -5z"/>
<path d="M1263 728 c-13 -22 -12 -38 2 -38 8 0 24 -18 37 -41 20 -36 24 -39
35 -23 19 26 16 58 -8 88 -22 28 -53 34 -66 14z"/>
<path d="M1211 706 c-14 -14 -21 -29 -17 -33 9 -9 49 32 44 47 -2 6 -13 1 -27
-14z"/>
<path d="M1360 694 c8 -10 15 -20 16 -22 1 -2 4 1 7 5 3 5 -4 15 -16 23 -21
12 -21 12 -7 -6z"/>
<path d="M1180 635 c-19 -23 -15 -60 9 -86 20 -21 25 -34 22 -51 0 -5 8 -8 18
-8 37 0 42 62 9 120 -25 43 -38 49 -58 25z"/>
<path d="M1384 575 c-16 -42 -18 -44 -34 -30 -14 13 -19 13 -23 3 -4 -8 -6 -7
-6 5 -1 28 -28 20 -39 -12 -14 -40 13 -95 48 -99 l25 -4 -22 22 c-13 11 -23
28 -22 38 0 14 2 14 6 2 9 -23 32 -42 42 -35 6 3 8 12 4 20 -4 11 -1 13 11 9
9 -3 16 -11 16 -17 0 -6 3 -7 7 -3 4 4 -3 16 -17 26 -37 29 2 27 41 -2 24 -18
32 -20 38 -9 5 8 7 21 6 30 -2 9 -4 23 -4 32 -1 8 -8 24 -16 35 -14 18 -14 17
-5 -9 13 -35 13 -34 -4 -34 -8 0 -12 6 -9 13 2 6 0 15 -6 19 -6 3 -11 -2 -12
-12 0 -10 -3 -13 -5 -6 -3 7 0 21 5 32 7 12 7 22 2 25 -5 4 -17 -14 -27 -39z"/>
<path d="M1170 488 c0 -9 5 -20 10 -23 13 -8 13 5 0 25 -8 13 -10 13 -10 -2z"/>
<path d="M1248 439 c-34 -13 -44 -38 -22 -58 9 -9 14 -10 10 -3 -4 6 -2 12 3
12 6 0 11 -3 11 -7 1 -5 12 -21 25 -38 35 -42 47 -19 26 51 -9 30 -18 54 -21
53 -3 0 -17 -5 -32 -10z"/>
<path d="M1450 429 c-12 -22 -8 -35 8 -25 13 8 22 46 11 46 -4 0 -13 -9 -19
-21z"/>
<path d="M1370 376 c0 -36 -3 -44 -15 -40 -8 4 -15 1 -15 -5 0 -6 5 -11 10
-11 6 0 22 -12 35 -27 23 -28 24 -28 39 -8 29 38 16 99 -25 121 l-29 15 0 -45z"/>
<path d="M1270 315 c7 -9 15 -13 17 -11 7 7 -7 26 -19 26 -6 0 -6 -6 2 -15z"/>
<path d="M1303 293 c-19 -7 -16 -19 5 -19 9 0 28 -4 42 -8 l25 -7 -24 20 c-24
22 -28 23 -48 14z"/>
<path d="M163 1156 c-24 -11 -39 -36 -23 -36 6 0 10 4 10 10 0 19 28 -2 34
-26 8 -29 26 -22 26 10 0 36 -21 54 -47 42z"/>
<path d="M799 1126 c7 -8 38 -18 69 -21 113 -12 113 -13 106 -50 -5 -31 -4
-34 30 -45 55 -18 80 9 30 32 -23 11 -25 16 -20 49 l6 36 -68 6 c-37 4 -89 7
-116 7 -41 0 -47 -2 -37 -14z"/>
<path d="M2651 1058 c7 -13 46 -59 87 -103 41 -44 98 -115 127 -158 53 -78 53
-78 69 -56 24 35 20 46 -35 108 -58 63 -215 207 -242 223 -17 9 -17 7 -6 -14z"/>
<path d="M540 948 c0 -9 7 -22 17 -29 15 -13 15 -12 3 11 -17 34 -20 36 -20
18z"/>
<path d="M214 928 c1 -7 5 -19 9 -25 6 -9 3 -11 -7 -7 -10 4 -16 1 -16 -7 1
-22 27 -52 39 -44 16 10 13 61 -5 79 -19 19 -23 20 -20 4z"/>
<path d="M386 878 c3 -5 10 -6 15 -3 5 4 9 2 9 -3 0 -14 28 -23 35 -11 4 5 1
8 -7 7 -7 -2 -12 2 -11 8 1 5 -9 10 -22 10 -13 0 -21 -4 -19 -8z"/>
<path d="M1603 855 c11 -7 26 -11 35 -8 12 3 13 2 4 -4 -8 -7 14 -29 80 -78
51 -38 146 -116 211 -173 l118 -104 99 8 c55 3 100 10 100 14 0 14 -226 179
-357 260 -128 80 -181 100 -266 100 -38 -1 -40 -2 -24 -15z m111 -13 c2 -4 1
-14 -5 -22 -7 -12 -9 -12 -9 3 0 14 -5 17 -20 12 -11 -4 -20 -2 -20 4 0 13 46
15 54 3z m67 -45 c1 -6 1 -16 0 -21 -3 -15 21 -36 43 -37 l21 0 -22 -11 c-18
-9 -29 -5 -64 21 -24 17 -36 31 -28 32 10 0 10 2 1 6 -18 7 -7 18 22 21 15 1
27 -4 27 -11z m65 -104 c-10 -10 -19 5 -10 18 6 11 8 11 12 0 2 -7 1 -15 -2
-18z m68 -21 c15 -25 -11 -38 -34 -17 -11 10 -17 21 -15 25 7 12 39 6 49 -8z
m86 -75 c8 0 21 -7 28 -16 8 -9 11 -11 8 -5 -4 8 8 11 34 9 24 -1 40 2 40 9 0
8 2 8 8 0 4 -6 14 -14 22 -17 8 -3 -3 -7 -25 -7 -22 -1 -60 -3 -85 -4 -44 -2
-80 14 -80 37 0 5 8 6 18 2 9 -4 24 -8 32 -8z"/>
<path d="M186 851 c-3 -5 1 -11 9 -15 8 -3 15 -1 15 4 0 13 -18 22 -24 11z"/>
<path d="M2610 671 c0 -6 5 -13 10 -16 6 -3 10 1 10 9 0 9 -4 16 -10 16 -5 0
-10 -4 -10 -9z"/>
<path d="M2640 651 c0 -5 5 -13 10 -16 6 -3 10 -2 10 4 0 5 -4 13 -10 16 -5 3
-10 2 -10 -4z"/>
</g>
</svg>
